<svg version="1.1" viewBox="0.0 0.0 960.0 720.0" fill="none" stroke="none" stroke-linecap="square" stroke-miterlimit="10" xmlns:xlink="http://www.w3.org/1999/xlink" xmlns="http://www.w3.org/2000/svg"><clipPath id="p.0"><path d="m0 0l960.0 0l0 720.0l-960.0 0l0 -720.0z" clip-rule="nonzero"/></clipPath><g clip-path="url(#p.0)"><path fill="#000000" fill-opacity="0.0" d="m0 0l960.0 0l0 720.0l-960.0 0z" fill-rule="evenodd"/><g filter="url(#shadowFilter-p.1)"><use xlink:href="#p.1" transform="matrix(1.0 0.0 0.0 1.0 0.0 2.0)"/></g><defs><filter id="shadowFilter-p.1" filterUnits="userSpaceOnUse"><feGaussianBlur in="SourceAlpha" stdDeviation="2.0" result="blur"/><feComponentTransfer in="blur" color-interpolation-filters="sRGB"><feFuncR type="linear" slope="0" intercept="0.0"/><feFuncG type="linear" slope="0" intercept="0.0"/><feFuncB type="linear" slope="0" intercept="0.0"/><feFuncA type="linear" slope="0.04" intercept="0"/></feComponentTransfer></filter></defs><g id="p.1"><path fill="#000000" fill-opacity="0.0" d="m113.5538 208.97113l631.4016 0l0 259.55905l-631.4016 0z" fill-rule="evenodd"/><path fill="#ff4000" d="m155.44443 281.17737l-18.46875 0l-6.71875 13.59375l-12.515625 0l29.9375 -57.34375l14.5625 0l5.75 57.34375l-11.609375 0l-0.9375 -13.59375zm-0.578125 -10.15625l-1.015625 -13.671875q-0.390625 -5.125 -0.390625 -9.890625l0 -1.40625q-1.71875 4.6875 -4.265625 9.921875l-7.34375 15.046875l13.015625 0zm50.3125 9.328125q0 7.34375 -4.875 11.28125q-4.859375 3.921875 -13.53125 3.921875q-4.171875 0 -7.28125 -0.59375q-3.109375 -0.578125 -5.796875 -1.953125l0 -9.6875q6.125 3.515625 12.453125 3.515625q3.125 0 5.109375 -1.265625q2.0 -1.265625 2.0 -3.453125q0 -1.6875 -1.453125 -3.015625q-1.4375 -1.328125 -5.109375 -3.359375q-4.71875 -2.65625 -6.59375 -5.28125q-1.875 -2.640625 -1.875 -6.234375q0 -6.640625 4.3125 -10.296875q4.3125 -3.65625 12.328125 -3.65625q7.84375 0 14.171875 3.71875l-3.859375 8.390625q-5.46875 -3.28125 -10.078125 -3.28125q-2.234375 0 -3.609375 1.0q-1.359375 1.0 -1.359375 2.671875q0 1.53125 1.25 2.6875q1.25 1.140625 4.6875 2.90625q4.8125 2.453125 6.953125 5.34375q2.15625 2.890625 2.15625 6.640625zm41.398438 -29.25l13.4375 0l-19.453125 19.6875l11.140625 23.984375l-13.125 0l-7.15625 -16.40625l-4.6875 2.8125l-2.890625 13.59375l-11.75 0l12.890625 -60.78125l11.75 0l-5.78125 27.109375q-0.3125 1.59375 -1.125 4.5625l-1.09375 3.984375l0.15625 0l17.6875 -18.546875zm52.585938 43.671875l-11.921875 0l9.921875 -47.03125l-13.75 0l2.15625 -10.078125l39.453125 0l-2.15625 10.078125l-13.78125 0l-9.921875 47.03125zm51.601562 -27.1875q0 -7.703125 -5.59375 -7.703125q-2.921875 0 -5.25 2.390625q-2.328125 2.375 -3.796875 6.984375q-1.453125 4.609375 -1.453125 9.5q0 7.21875 5.859375 7.21875q2.921875 0 5.265625 -2.390625q2.34375 -2.40625 3.65625 -6.6875q1.3125 -4.28125 1.3125 -9.3125zm11.828125 0q0 8.234375 -2.75 14.609375q-2.75 6.359375 -7.953125 9.859375q-5.1875 3.5 -12.34375 3.5q-7.609375 0 -12.171875 -4.59375q-4.546875 -4.59375 -4.546875 -12.203125q0 -8.328125 2.796875 -14.828125q2.796875 -6.5 8.0625 -10.078125q5.28125 -3.578125 12.34375 -3.578125q7.65625 0 12.109375 4.609375q4.453125 4.609375 4.453125 12.703125zm35.90625 12.765625q0 7.34375 -4.875 11.28125q-4.859375 3.921875 -13.53125 3.921875q-4.171875 0 -7.28125 -0.59375q-3.109375 -0.578125 -5.796875 -1.953125l0 -9.6875q6.125 3.515625 12.453125 3.515625q3.125 0 5.109375 -1.265625q2.0 -1.265625 2.0 -3.453125q0 -1.6875 -1.453125 -3.015625q-1.4375 -1.328125 -5.109375 -3.359375q-4.71875 -2.65625 -6.59375 -5.28125q-1.875 -2.640625 -1.875 -6.234375q0 -6.640625 4.3125 -10.296875q4.3125 -3.65625 12.328125 -3.65625q7.84375 0 14.171875 3.71875l-3.859375 8.390625q-5.46875 -3.28125 -10.078125 -3.28125q-2.234375 0 -3.609375 1.0q-1.359375 1.0 -1.359375 2.671875q0 1.53125 1.25 2.6875q1.25 1.140625 4.6875 2.90625q4.8125 2.453125 6.953125 5.34375q2.15625 2.890625 2.15625 6.640625zm25.226562 15.203125q-7.84375 0 -12.046875 -4.203125q-4.203125 -4.203125 -4.203125 -11.859375q0 -8.28125 2.90625 -15.046875q2.921875 -6.78125 8.1875 -10.46875q5.28125 -3.703125 12.03125 -3.703125q7.109375 0 12.8125 2.8125l-3.59375 8.953125q-2.109375 -0.90625 -4.140625 -1.5625q-2.03125 -0.671875 -4.609375 -0.671875q-3.3125 0 -6.0 2.5q-2.671875 2.5 -4.171875 6.859375q-1.5 4.359375 -1.5 9.359375q0 3.75 1.765625 5.640625q1.78125 1.890625 4.953125 1.890625q2.96875 0 5.5 -0.90625q2.546875 -0.921875 5.234375 -2.296875l0 9.609375q-5.9375 3.09375 -13.125 3.09375zm34.726562 0q-5.734375 0 -9.046875 -4.15625q-3.296875 -4.171875 -3.296875 -11.671875q0 -7.734375 2.8125 -14.734375q2.8125 -7.015625 7.375 -10.859375q4.578125 -3.859375 10.046875 -3.859375q3.796875 0 6.546875 1.640625q2.75 1.640625 4.28125 4.765625l0.3125 0l2.21875 -5.578125l9.0625 0l-9.296875 43.671875l-8.9375 0l0.546875 -5.671875l-0.15625 0q-5.234375 6.453125 -12.46875 6.453125zm4.609375 -9.5q2.703125 0 5.203125 -2.609375q2.5 -2.625 4.015625 -7.09375q1.53125 -4.46875 1.53125 -10.140625q0 -2.765625 -1.515625 -4.578125q-1.5 -1.828125 -3.953125 -1.828125q-2.65625 0 -5.0625 2.8125q-2.40625 2.8125 -3.828125 7.421875q-1.421875 4.609375 -1.421875 9.140625q0 3.4375 1.296875 5.15625q1.3125 1.71875 3.734375 1.71875zm65.24222 8.71875l-11.765625 0l5.359375 -25.515625q0.625 -2.65625 0.625 -4.640625q0 -4.8125 -4.21875 -4.8125q-3.59375 0 -6.5312805 4.453125q-2.921875 4.453125 -4.609375 12.421875l-3.828125 18.09375l-11.75 0l9.25 -43.671875l8.984375 0l-0.8125 8.078125l0.234375 0q5.7031555 -8.90625 13.8594055 -8.90625q5.390625 0 8.34375 3.265625q2.953125 3.265625 2.953125 9.3125q0 2.859375 -0.90625 7.03125l-5.1875 24.890625zm22.726562 -53.90625q0 -3.40625 1.859375 -5.140625q1.859375 -1.734375 5.25 -1.734375q2.859375 0 4.34375 1.21875q1.484375 1.203125 1.484375 3.46875q0 3.125 -1.71875 5.0625q-1.71875 1.921875 -5.3125 1.921875q-5.90625 0 -5.90625 -4.796875zm0.625 53.90625l-11.75 0l9.25 -43.671875l11.765625 0l-9.265625 43.671875zm48.71875 0l-11.765625 0l5.359375 -25.515625q0.625 -2.65625 0.625 -4.640625q0 -4.8125 -4.21875 -4.8125q-3.59375 0 -6.53125 4.453125q-2.921875 4.453125 -4.609375 12.421875l-3.828125 18.09375l-11.75 0l9.25 -43.671875l8.984375 0l-0.8125 8.078125l0.234375 0q5.703125 -8.90625 13.859375 -8.90625q5.390625 0 8.34375 3.265625q2.953125 3.265625 2.953125 9.3125q0 2.859375 -0.90625 7.03125l-5.1875 24.890625zm22.726562 -53.90625q0 -3.40625 1.859375 -5.140625q1.859375 -1.734375 5.25 -1.734375q2.859375 0 4.34375 1.21875q1.484375 1.203125 1.484375 3.46875q0 3.125 -1.71875 5.0625q-1.71875 1.921875 -5.3125 1.921875q-5.90625 0 -5.90625 -4.796875zm0.625 53.90625l-11.75 0l9.25 -43.671875l11.765625 0l-9.265625 43.671875zm25.828125 -18.953125l-9.421875 0l6.140625 -38.15625l13.28125 0l-10.0 38.15625zm-14.296875 14.453125q0 -3.515625 2.078125 -5.625q2.09375 -2.109375 5.890625 -2.109375q2.65625 0 4.25 1.484375q1.609375 1.484375 1.609375 4.1875q0 3.390625 -2.15625 5.515625q-2.140625 2.109375 -5.625 2.109375q-2.84375 0 -4.453125 -1.46875q-1.59375 -1.46875 -1.59375 -4.09375z" fill-rule="nonzero"/></g></g></svg>