<svg version="1.1" viewBox="0.0 0.0 210.54068241469815 100.0" fill="none" stroke="none" stroke-linecap="square" stroke-miterlimit="10" xmlns:xlink="http://www.w3.org/1999/xlink" xmlns="http://www.w3.org/2000/svg"><clipPath id="p.0"><path d="m0 0l210.54068 0l0 100.0l-210.54068 0l0 -100.0z" clip-rule="nonzero"/></clipPath><g clip-path="url(#p.0)"><path fill="#000000" fill-opacity="0.0" d="m0 0l210.54068 0l0 100.0l-210.54068 0z" fill-rule="evenodd"/><path fill="#e63900" d="m16.530163 21.172323c0.0543499 6.917101 0.21196556 13.996004 0.4728489 21.236712l0.5706787 18.14222l-6.424222 0c2.2392387 -15.654491 3.5943794 -25.241348 4.0654135 -28.760576c0.47466373 -3.519226 0.91308784 -7.0586777 1.3152809 -10.618355zm-0.7989521 -11.649853l-13.0278015 88.70878l3.08167 0l3.9947577 -28.214485l8.087347 0l0.92939186 28.214485l2.7718735 0l-3.000145 -88.70878z" fill-rule="evenodd"/><path fill="#e63900" d="m31.400444 30.516476c-1.7935638 0 -3.2392864 1.7124214 -4.337166 5.1372604c-1.0978775 3.4113617 -1.6468182 7.9081497 -1.6468182 13.490368c0 3.8832855 0.29349327 7.2407074 0.8804779 10.072269c0.58698463 2.831562 1.5870323 5.723797 3.000145 8.676716c1.2609291 2.7506561 2.0816212 4.9147797 2.4620743 6.492363c0.3804531 1.5775833 0.5706806 3.519226 0.5706806 5.8249283c0 3.1551666 -0.34784317 5.744026 -1.0435295 7.7665634c-0.69568443 2.0225449 -1.728344 3.033821 -3.0979748 3.033821c-0.75003624 0 -1.5652924 -0.46518707 -2.4457703 -1.3955536c-0.8804779 -0.93037415 -1.70117 -2.2450256 -2.4620762 -3.943962l0 9.586853c1.4783325 2.7911148 3.1360226 4.1866684 4.9730663 4.1866684c2.1848888 0 3.876997 -1.7663574 5.076334 -5.2990646c1.2029533 -3.546196 1.8044319 -8.474457 1.8044319 -14.784798c0 -2.5079498 -0.12500381 -4.75972 -0.37501526 -6.755295c-0.25001526 -2.0090637 -0.6286583 -3.8832855 -1.1359253 -5.622673c-0.50365067 -1.7393875 -1.3370209 -3.8226051 -2.500122 -6.2496605c-1.2065792 -2.5484047 -2.0037212 -4.6316223 -2.3914185 -6.2496605c-0.38407898 -1.6180344 -0.57611465 -3.5596771 -0.57611465 -5.8249245c0 -2.791111 0.28805733 -5.063099 0.864172 -6.815975c0.57611465 -1.7663498 1.3696308 -2.6495323 2.3805485 -2.6495323c1.293541 0 2.4892502 0.86969376 3.5871315 2.609085l0.91308594 1.5169067l0.8804779 -8.312656c-1.728344 -2.9933662 -3.5219078 -4.4900475 -5.3806953 -4.4900475z" fill-rule="evenodd"/><path fill="#e63900" d="m43.759735 3.818897l-5.3806915 94.41235l2.7718697 0l1.3370209 -24.331207l2.478382 -7.4631805l3.831707 31.794388l3.0490608 0l-4.8100166 -38.165405l7.64711 -28.335838l-3.2773323 0l-8.5765 32.583183l-0.065223694 0c0.48915482 -5.2181664 1.0435295 -13.207214 1.6631241 -23.967148c0.6195946 -10.759933 1.3207169 -22.935646 2.103363 -36.52714z" fill-rule="evenodd"/><path fill="#e63900" d="m89.59347 39.435894c1.1631012 0 2.083435 1.4494934 2.7610016 4.348469c0.6811905 2.885498 1.0217896 6.654171 1.0217896 11.306023c0 6.998001 -0.25363922 13.220688 -0.7609024 18.668076c-0.5036545 5.433899 -1.2065811 9.627312 -2.1088028 12.580223c-0.90221405 2.952919 -1.9185715 4.4293747 -3.049057 4.4293747c-1.293541 0 -2.2863464 -1.442749 -2.9784088 -4.328247c-0.6884384 -2.8989792 -1.0326538 -6.998001 -1.0326538 -12.297066c0 -6.5125885 0.25725555 -12.425159 0.7717743 -17.737709c0.5181427 -5.3260307 1.2464371 -9.485729 2.1848907 -12.479095c0.94207 -2.9933624 2.0055313 -4.4900475 3.1903687 -4.4900475zm-23.609833 -29.913424l-0.5380707 9.162125l6.6198883 0l-4.5165253 79.54665l2.8044815 0l4.5491333 -79.54665l6.6524963 0l0.489151 -9.162125zm23.54461 21.358063c-1.6413803 0 -3.1360168 1.813551 -4.4839096 5.440645c-1.3478928 3.6136131 -2.4185944 8.81155 -3.2121124 15.593811c-0.79351807 6.7687836 -1.1902695 13.996006 -1.1902695 21.681675c0 7.9283676 0.59241486 14.178032 1.7772598 18.748978c1.1848373 4.5709457 2.8207855 6.8564224 4.9078445 6.8564224c1.6848602 0 3.1958008 -1.8405151 4.5328217 -5.5215454c1.3370209 -3.6810303 2.3968582 -8.899193 3.1795044 -15.654488c0.7826462 -6.755295 1.1739731 -13.935326 1.1739731 -21.540092c0 -7.9688225 -0.59786224 -14.225224 -1.7935715 -18.769207c-1.1957092 -4.5574646 -2.8262177 -6.836199 -4.8915405 -6.836199z" fill-rule="evenodd"/><path fill="#e63900" d="m106.029045 30.516476c-1.7935638 0 -3.2392883 1.7124214 -4.337166 5.1372604c-1.0978775 3.4113617 -1.6468201 7.9081497 -1.6468201 13.490368c0 3.8832855 0.29349518 7.2407074 0.8804779 10.072269c0.5869827 2.831562 1.5870285 5.723797 3.000145 8.676716c1.2609253 2.7506561 2.0816193 4.9147797 2.4620743 6.492363c0.38045502 1.5775833 0.5706787 3.519226 0.5706787 5.8249283c0 3.1551666 -0.34783936 5.744026 -1.0435257 7.7665634c-0.69568634 2.0225449 -1.7283478 3.033821 -3.0979767 3.033821c-0.75003815 0 -1.5652924 -0.46518707 -2.4457703 -1.3955536c-0.8804779 -0.93037415 -1.7011719 -2.2450256 -2.4620743 -3.943962l0 9.586853c1.4783325 2.7911148 3.1360168 4.1866684 4.9730606 4.1866684c2.1848907 0 3.876999 -1.7663574 5.076332 -5.2990646c1.2029572 -3.546196 1.8044357 -8.474457 1.8044357 -14.784798c0 -2.5079498 -0.12500763 -4.75972 -0.37501526 -6.755295c-0.25001526 -2.0090637 -0.6286545 -3.8832855 -1.1359253 -5.622673c-0.50364685 -1.7393875 -1.3370209 -3.8226051 -2.500122 -6.2496605c-1.2065811 -2.5484047 -2.0037155 -4.6316223 -2.3914185 -6.2496605c-0.38407898 -1.6180344 -0.57611084 -3.5596771 -0.57611084 -5.8249245c0 -2.791111 0.28805542 -5.063099 0.86416626 -6.815975c0.57611847 -1.7663498 1.3696365 -2.6495323 2.3805542 -2.6495323c1.293541 0 2.4892502 0.86969376 3.5871277 2.609085l0.91308594 1.5169067l0.8804779 -8.312656c-1.7283401 -2.9933662 -3.5219116 -4.4900475 -5.3806915 -4.4900475z" fill-rule="evenodd"/><path fill="#e63900" d="m123.002686 30.516476c-1.7718201 0 -3.3679123 1.9146767 -4.788269 5.744026c-1.4167404 3.8158684 -2.527298 9.141899 -3.331688 15.978096c-0.8043823 6.836197 -1.2065811 14.299381 -1.2065811 22.38956c0 7.887924 0.5815506 13.996002 1.7446518 18.32425c1.1631012 4.3282394 2.7990494 6.492363 4.9078445 6.492363c1.6522522 0 3.1523285 -1.2742004 4.5002213 -3.822609l0 -8.676712c-0.6739502 1.0921707 -1.3587646 2.0427704 -2.054451 2.8517838c-0.69568634 0.809021 -1.4348526 1.2135315 -2.2174988 1.2135315c-1.2717972 0 -2.2700348 -1.4360046 -2.9947052 -4.3080215c-0.7210541 -2.8720093 -1.0815735 -6.8968735 -1.0815735 -12.074585c0 -6.4721375 0.28443146 -12.465614 0.853302 -17.980415c0.5724869 -5.528286 1.3605728 -9.836304 2.3642426 -12.924057c1.0072937 -3.1012306 2.119667 -4.651848 3.33712 -4.651848c1.0761337 0 2.2664108 1.0314941 3.5708237 3.09449l0.76634216 -8.555359c-1.4239883 -2.062996 -2.880577 -3.0944939 -4.3697815 -3.0944939z" fill-rule="evenodd"/><path fill="#e63900" d="m137.79144 39.07184c0.9891815 0 1.7881317 1.2337494 2.3968506 3.701252c0.60873413 2.4675064 0.91308594 5.784477 0.91308594 9.950916c0 6.0271835 -0.32609558 12.047615 -0.978302 18.061317c-0.6522064 6.0002136 -1.5000763 10.874542 -2.5435944 14.622993c-1.0435333 3.7349625 -2.0924988 5.6024475 -3.1468964 5.6024475c-0.92396545 0 -1.6413879 -1.1393738 -2.1522827 -3.4180984c-0.5108948 -2.292221 -0.76634216 -5.744026 -0.76634216 -10.355431c0 -6.5934906 0.27719116 -12.863373 0.8315735 -18.809654c0.55436707 -5.9462776 1.3170929 -10.658806 2.288147 -14.137581c0.97468567 -3.478775 2.0272675 -5.2181625 3.1577606 -5.2181625zm-0.26087952 -8.555363c-1.6196442 0 -3.108841 2.0427704 -4.4676056 6.1283073c-1.3587646 4.085541 -2.4240265 9.7284355 -3.195816 16.928692c-0.7717743 7.2002563 -1.1576538 15.007275 -1.1576538 23.421062c0 6.95755 0.42936707 12.438644 1.2881012 16.443275c0.85873413 4.0046387 2.043579 6.006958 3.5545197 6.006958c2.1522827 0 4.201294 -4.6316223 6.1470337 -13.894875l0.13044739 0l-0.42393494 12.681351l2.168579 0l3.7991028 -66.50124l-2.070755 0l-1.092453 10.436325l-0.1793518 0c-0.4347992 -3.7619324 -1.0435333 -6.640682 -1.8261719 -8.636261c-0.7826538 -2.00906 -1.673996 -3.0135918 -2.6740417 -3.0135918z" fill-rule="evenodd"/><path fill="#e63900" d="m158.87398 30.516476c-1.0435181 0 -2.0526276 1.0247574 -3.0273132 3.0742683c-0.97106934 2.0360298 -1.978363 5.5215454 -3.021881 10.456551l-0.16305542 0l0.3587036 -12.317291l-2.2664032 0l-3.8153992 66.50124l2.7392578 0l1.6468201 -28.82125c0.3587036 -6.391239 0.88772583 -11.831882 1.5870361 -16.32193c0.70292664 -4.4900475 1.5127411 -7.948597 2.4294586 -10.3756485c0.92033386 -2.4270554 1.8642273 -3.6405792 2.831665 -3.6405792c0.8478546 0 1.4638367 0.76856613 1.8479156 2.3056984c0.3876953 1.5371323 0.58154297 3.5799026 0.58154297 6.1283073c0 1.6180344 -0.10870361 4.5304985 -0.32609558 8.737389l-2.4131622 41.988014l2.7718658 0l2.3316345 -40.774487c0.25001526 -4.085537 0.37501526 -7.726116 0.37501526 -10.921738c0 -5.0563583 -0.40037537 -8.9868355 -1.2011414 -11.791431c-0.7971344 -2.8180752 -1.8859558 -4.2271156 -3.2664642 -4.2271156z" fill-rule="evenodd"/><path fill="#e63900" d="m172.66812 7.034742c-0.55436707 0 -1.0054779 0.7213731 -1.3533173 2.164122c-0.3478546 1.4292631 -0.5217743 3.2765207 -0.5217743 5.54177c0 1.8202887 0.14131165 3.2293272 0.42393494 4.2271166c0.2826233 0.9843044 0.64134216 1.4764576 1.0761414 1.4764576c0.47828674 0 0.8985901 -0.76856804 1.2609253 -2.3057003c0.3659668 -1.5371342 0.5489502 -3.4180994 0.5489502 -5.6428976c0 -3.6405792 -0.47828674 -5.4608684 -1.4348602 -5.4608684zm-2.6414337 24.695261l-3.8153992 66.50124l2.739273 0l3.8153992 -66.50124zm16.598633 -1.2135277c-1.0435333 0 -2.0526428 1.0247574 -3.0273132 3.0742683c-0.97106934 2.0360298 -1.978363 5.5215454 -3.0218964 10.456551l-0.16304016 0l0.3587036 -12.317291l-2.2664032 0l-3.8154144 66.50124l2.739273 0l1.6468201 -28.82125c0.3587036 -6.391239 0.8877106 -11.831882 1.5870209 -16.32193c0.7029419 -4.4900475 1.5127563 -7.948597 2.4294739 -10.3756485c0.92033386 -2.4270554 1.864212 -3.6405792 2.8316498 -3.6405792c0.8478699 0 1.4638367 0.76856613 1.8479156 2.3056984c0.3876953 1.5371323 0.5815582 3.5799026 0.5815582 6.1283073c0 1.6180344 -0.10870361 4.5304985 -0.32611084 8.737389l-2.4131622 41.988014l2.771881 0l2.3316345 -40.774487c0.25001526 -4.085537 0.37501526 -7.726116 0.37501526 -10.921738c0 -5.0563583 -0.40037537 -8.9868355 -1.2011414 -11.791431c-0.79714966 -2.8180752 -1.8859558 -4.2271156 -3.2664642 -4.2271156z" fill-rule="evenodd"/><path fill="#e63900" d="m200.41946 7.034742c-0.5543823 0 -1.0054779 0.7213731 -1.3533325 2.164122c-0.34783936 1.4292631 -0.52175903 3.2765207 -0.52175903 5.54177c0 1.8202887 0.14131165 3.2293272 0.42393494 4.2271166c0.2826233 0.9843044 0.6413269 1.4764576 1.0761414 1.4764576c0.47828674 0 0.8985901 -0.76856804 1.2609253 -2.3057003c0.3659668 -1.5371342 0.54893494 -3.4180994 0.54893494 -5.6428976c0 -3.6405792 -0.47827148 -5.4608684 -1.434845 -5.4608684zm6.734024 2.4877286c-1.3805084 30.419062 -2.3370667 51.8378 -2.8697052 64.25622l1.7772522 0l4.4676056 -64.25622zm-9.375458 22.207533l-3.8153992 66.50124l2.7392578 0l3.8153992 -66.50124zm6.79924 51.817574c-0.73916626 0 -1.3243408 0.88991547 -1.7555237 2.669754c-0.42755127 1.7798386 -0.6413269 4.206894 -0.6413269 7.2811584c0 2.062996 0.14855957 3.6608047 0.4456787 4.793434c0.30073547 1.1326218 0.7174225 1.6989365 1.2500458 1.6989365c0.71743774 0 1.2881165 -0.9505997 1.7120514 -2.8517914c0.42393494 -1.9011917 0.6358948 -4.227112 0.6358948 -6.9777756c0 -2.184349 -0.1521759 -3.8293533 -0.45654297 -4.935005c-0.30436707 -1.1191406 -0.7011261 -1.6787109 -1.1902771 -1.6787109z" fill-rule="evenodd"/><path stroke="#000000" stroke-width="1.0" stroke-linejoin="round" stroke-linecap="butt" d="m16.530163 21.172323c0.0543499 6.917101 0.21196556 13.996004 0.4728489 21.236712l0.5706787 18.14222l-6.424222 0c2.2392387 -15.654491 3.5943794 -25.241348 4.0654135 -28.760576c0.47466373 -3.519226 0.91308784 -7.0586777 1.3152809 -10.618355zm-0.7989521 -11.649853l-13.0278015 88.70878l3.08167 0l3.9947577 -28.214485l8.087347 0l0.92939186 28.214485l2.7718735 0l-3.000145 -88.70878z" fill-rule="evenodd"/><path stroke="#000000" stroke-width="1.0" stroke-linejoin="round" stroke-linecap="butt" d="m31.400444 30.516476c-1.7935638 0 -3.2392864 1.7124214 -4.337166 5.1372604c-1.0978775 3.4113617 -1.6468182 7.9081497 -1.6468182 13.490368c0 3.8832855 0.29349327 7.2407074 0.8804779 10.072269c0.58698463 2.831562 1.5870323 5.723797 3.000145 8.676716c1.2609291 2.7506561 2.0816212 4.9147797 2.4620743 6.492363c0.3804531 1.5775833 0.5706806 3.519226 0.5706806 5.8249283c0 3.1551666 -0.34784317 5.744026 -1.0435295 7.7665634c-0.69568443 2.0225449 -1.728344 3.033821 -3.0979748 3.033821c-0.75003624 0 -1.5652924 -0.46518707 -2.4457703 -1.3955536c-0.8804779 -0.93037415 -1.70117 -2.2450256 -2.4620762 -3.943962l0 9.586853c1.4783325 2.7911148 3.1360226 4.1866684 4.9730663 4.1866684c2.1848888 0 3.876997 -1.7663574 5.076334 -5.2990646c1.2029533 -3.546196 1.8044319 -8.474457 1.8044319 -14.784798c0 -2.5079498 -0.12500381 -4.75972 -0.37501526 -6.755295c-0.25001526 -2.0090637 -0.6286583 -3.8832855 -1.1359253 -5.622673c-0.50365067 -1.7393875 -1.3370209 -3.8226051 -2.500122 -6.2496605c-1.2065792 -2.5484047 -2.0037212 -4.6316223 -2.3914185 -6.2496605c-0.38407898 -1.6180344 -0.57611465 -3.5596771 -0.57611465 -5.8249245c0 -2.791111 0.28805733 -5.063099 0.864172 -6.815975c0.57611465 -1.7663498 1.3696308 -2.6495323 2.3805485 -2.6495323c1.293541 0 2.4892502 0.86969376 3.5871315 2.609085l0.91308594 1.5169067l0.8804779 -8.312656c-1.728344 -2.9933662 -3.5219078 -4.4900475 -5.3806953 -4.4900475z" fill-rule="evenodd"/><path stroke="#000000" stroke-width="1.0" stroke-linejoin="round" stroke-linecap="butt" d="m43.759735 3.818897l-5.3806915 94.41235l2.7718697 0l1.3370209 -24.331207l2.478382 -7.4631805l3.831707 31.794388l3.0490608 0l-4.8100166 -38.165405l7.64711 -28.335838l-3.2773323 0l-8.5765 32.583183l-0.065223694 0c0.48915482 -5.2181664 1.0435295 -13.207214 1.6631241 -23.967148c0.6195946 -10.759933 1.3207169 -22.935646 2.103363 -36.52714z" fill-rule="evenodd"/><path stroke="#000000" stroke-width="1.0" stroke-linejoin="round" stroke-linecap="butt" d="m89.59347 39.435894c1.1631012 0 2.083435 1.4494934 2.7610016 4.348469c0.6811905 2.885498 1.0217896 6.654171 1.0217896 11.306023c0 6.998001 -0.25363922 13.220688 -0.7609024 18.668076c-0.5036545 5.433899 -1.2065811 9.627312 -2.1088028 12.580223c-0.90221405 2.952919 -1.9185715 4.4293747 -3.049057 4.4293747c-1.293541 0 -2.2863464 -1.442749 -2.9784088 -4.328247c-0.6884384 -2.8989792 -1.0326538 -6.998001 -1.0326538 -12.297066c0 -6.5125885 0.25725555 -12.425159 0.7717743 -17.737709c0.5181427 -5.3260307 1.2464371 -9.485729 2.1848907 -12.479095c0.94207 -2.9933624 2.0055313 -4.4900475 3.1903687 -4.4900475zm-23.609833 -29.913424l-0.5380707 9.162125l6.6198883 0l-4.5165253 79.54665l2.8044815 0l4.5491333 -79.54665l6.6524963 0l0.489151 -9.162125zm23.54461 21.358063c-1.6413803 0 -3.1360168 1.813551 -4.4839096 5.440645c-1.3478928 3.6136131 -2.4185944 8.81155 -3.2121124 15.593811c-0.79351807 6.7687836 -1.1902695 13.996006 -1.1902695 21.681675c0 7.9283676 0.59241486 14.178032 1.7772598 18.748978c1.1848373 4.5709457 2.8207855 6.8564224 4.9078445 6.8564224c1.6848602 0 3.1958008 -1.8405151 4.5328217 -5.5215454c1.3370209 -3.6810303 2.3968582 -8.899193 3.1795044 -15.654488c0.7826462 -6.755295 1.1739731 -13.935326 1.1739731 -21.540092c0 -7.9688225 -0.59786224 -14.225224 -1.7935715 -18.769207c-1.1957092 -4.5574646 -2.8262177 -6.836199 -4.8915405 -6.836199z" fill-rule="evenodd"/><path stroke="#000000" stroke-width="1.0" stroke-linejoin="round" stroke-linecap="butt" d="m106.029045 30.516476c-1.7935638 0 -3.2392883 1.7124214 -4.337166 5.1372604c-1.0978775 3.4113617 -1.6468201 7.9081497 -1.6468201 13.490368c0 3.8832855 0.29349518 7.2407074 0.8804779 10.072269c0.5869827 2.831562 1.5870285 5.723797 3.000145 8.676716c1.2609253 2.7506561 2.0816193 4.9147797 2.4620743 6.492363c0.38045502 1.5775833 0.5706787 3.519226 0.5706787 5.8249283c0 3.1551666 -0.34783936 5.744026 -1.0435257 7.7665634c-0.69568634 2.0225449 -1.7283478 3.033821 -3.0979767 3.033821c-0.75003815 0 -1.5652924 -0.46518707 -2.4457703 -1.3955536c-0.8804779 -0.93037415 -1.7011719 -2.2450256 -2.4620743 -3.943962l0 9.586853c1.4783325 2.7911148 3.1360168 4.1866684 4.9730606 4.1866684c2.1848907 0 3.876999 -1.7663574 5.076332 -5.2990646c1.2029572 -3.546196 1.8044357 -8.474457 1.8044357 -14.784798c0 -2.5079498 -0.12500763 -4.75972 -0.37501526 -6.755295c-0.25001526 -2.0090637 -0.6286545 -3.8832855 -1.1359253 -5.622673c-0.50364685 -1.7393875 -1.3370209 -3.8226051 -2.500122 -6.2496605c-1.2065811 -2.5484047 -2.0037155 -4.6316223 -2.3914185 -6.2496605c-0.38407898 -1.6180344 -0.57611084 -3.5596771 -0.57611084 -5.8249245c0 -2.791111 0.28805542 -5.063099 0.86416626 -6.815975c0.57611847 -1.7663498 1.3696365 -2.6495323 2.3805542 -2.6495323c1.293541 0 2.4892502 0.86969376 3.5871277 2.609085l0.91308594 1.5169067l0.8804779 -8.312656c-1.7283401 -2.9933662 -3.5219116 -4.4900475 -5.3806915 -4.4900475z" fill-rule="evenodd"/><path stroke="#000000" stroke-width="1.0" stroke-linejoin="round" stroke-linecap="butt" d="m123.002686 30.516476c-1.7718201 0 -3.3679123 1.9146767 -4.788269 5.744026c-1.4167404 3.8158684 -2.527298 9.141899 -3.331688 15.978096c-0.8043823 6.836197 -1.2065811 14.299381 -1.2065811 22.38956c0 7.887924 0.5815506 13.996002 1.7446518 18.32425c1.1631012 4.3282394 2.7990494 6.492363 4.9078445 6.492363c1.6522522 0 3.1523285 -1.2742004 4.5002213 -3.822609l0 -8.676712c-0.6739502 1.0921707 -1.3587646 2.0427704 -2.054451 2.8517838c-0.69568634 0.809021 -1.4348526 1.2135315 -2.2174988 1.2135315c-1.2717972 0 -2.2700348 -1.4360046 -2.9947052 -4.3080215c-0.7210541 -2.8720093 -1.0815735 -6.8968735 -1.0815735 -12.074585c0 -6.4721375 0.28443146 -12.465614 0.853302 -17.980415c0.5724869 -5.528286 1.3605728 -9.836304 2.3642426 -12.924057c1.0072937 -3.1012306 2.119667 -4.651848 3.33712 -4.651848c1.0761337 0 2.2664108 1.0314941 3.5708237 3.09449l0.76634216 -8.555359c-1.4239883 -2.062996 -2.880577 -3.0944939 -4.3697815 -3.0944939z" fill-rule="evenodd"/><path stroke="#000000" stroke-width="1.0" stroke-linejoin="round" stroke-linecap="butt" d="m137.79144 39.07184c0.9891815 0 1.7881317 1.2337494 2.3968506 3.701252c0.60873413 2.4675064 0.91308594 5.784477 0.91308594 9.950916c0 6.0271835 -0.32609558 12.047615 -0.978302 18.061317c-0.6522064 6.0002136 -1.5000763 10.874542 -2.5435944 14.622993c-1.0435333 3.7349625 -2.0924988 5.6024475 -3.1468964 5.6024475c-0.92396545 0 -1.6413879 -1.1393738 -2.1522827 -3.4180984c-0.5108948 -2.292221 -0.76634216 -5.744026 -0.76634216 -10.355431c0 -6.5934906 0.27719116 -12.863373 0.8315735 -18.809654c0.55436707 -5.9462776 1.3170929 -10.658806 2.288147 -14.137581c0.97468567 -3.478775 2.0272675 -5.2181625 3.1577606 -5.2181625zm-0.26087952 -8.555363c-1.6196442 0 -3.108841 2.0427704 -4.4676056 6.1283073c-1.3587646 4.085541 -2.4240265 9.7284355 -3.195816 16.928692c-0.7717743 7.2002563 -1.1576538 15.007275 -1.1576538 23.421062c0 6.95755 0.42936707 12.438644 1.2881012 16.443275c0.85873413 4.0046387 2.043579 6.006958 3.5545197 6.006958c2.1522827 0 4.201294 -4.6316223 6.1470337 -13.894875l0.13044739 0l-0.42393494 12.681351l2.168579 0l3.7991028 -66.50124l-2.070755 0l-1.092453 10.436325l-0.1793518 0c-0.4347992 -3.7619324 -1.0435333 -6.640682 -1.8261719 -8.636261c-0.7826538 -2.00906 -1.673996 -3.0135918 -2.6740417 -3.0135918z" fill-rule="evenodd"/><path stroke="#000000" stroke-width="1.0" stroke-linejoin="round" stroke-linecap="butt" d="m158.87398 30.516476c-1.0435181 0 -2.0526276 1.0247574 -3.0273132 3.0742683c-0.97106934 2.0360298 -1.978363 5.5215454 -3.021881 10.456551l-0.16305542 0l0.3587036 -12.317291l-2.2664032 0l-3.8153992 66.50124l2.7392578 0l1.6468201 -28.82125c0.3587036 -6.391239 0.88772583 -11.831882 1.5870361 -16.32193c0.70292664 -4.4900475 1.5127411 -7.948597 2.4294586 -10.3756485c0.92033386 -2.4270554 1.8642273 -3.6405792 2.831665 -3.6405792c0.8478546 0 1.4638367 0.76856613 1.8479156 2.3056984c0.3876953 1.5371323 0.58154297 3.5799026 0.58154297 6.1283073c0 1.6180344 -0.10870361 4.5304985 -0.32609558 8.737389l-2.4131622 41.988014l2.7718658 0l2.3316345 -40.774487c0.25001526 -4.085537 0.37501526 -7.726116 0.37501526 -10.921738c0 -5.0563583 -0.40037537 -8.9868355 -1.2011414 -11.791431c-0.7971344 -2.8180752 -1.8859558 -4.2271156 -3.2664642 -4.2271156z" fill-rule="evenodd"/><path stroke="#000000" stroke-width="1.0" stroke-linejoin="round" stroke-linecap="butt" d="m172.66812 7.034742c-0.55436707 0 -1.0054779 0.7213731 -1.3533173 2.164122c-0.3478546 1.4292631 -0.5217743 3.2765207 -0.5217743 5.54177c0 1.8202887 0.14131165 3.2293272 0.42393494 4.2271166c0.2826233 0.9843044 0.64134216 1.4764576 1.0761414 1.4764576c0.47828674 0 0.8985901 -0.76856804 1.2609253 -2.3057003c0.3659668 -1.5371342 0.5489502 -3.4180994 0.5489502 -5.6428976c0 -3.6405792 -0.47828674 -5.4608684 -1.4348602 -5.4608684zm-2.6414337 24.695261l-3.8153992 66.50124l2.739273 0l3.8153992 -66.50124zm16.598633 -1.2135277c-1.0435333 0 -2.0526428 1.0247574 -3.0273132 3.0742683c-0.97106934 2.0360298 -1.978363 5.5215454 -3.0218964 10.456551l-0.16304016 0l0.3587036 -12.317291l-2.2664032 0l-3.8154144 66.50124l2.739273 0l1.6468201 -28.82125c0.3587036 -6.391239 0.8877106 -11.831882 1.5870209 -16.32193c0.7029419 -4.4900475 1.5127563 -7.948597 2.4294739 -10.3756485c0.92033386 -2.4270554 1.864212 -3.6405792 2.8316498 -3.6405792c0.8478699 0 1.4638367 0.76856613 1.8479156 2.3056984c0.3876953 1.5371323 0.5815582 3.5799026 0.5815582 6.1283073c0 1.6180344 -0.10870361 4.5304985 -0.32611084 8.737389l-2.4131622 41.988014l2.771881 0l2.3316345 -40.774487c0.25001526 -4.085537 0.37501526 -7.726116 0.37501526 -10.921738c0 -5.0563583 -0.40037537 -8.9868355 -1.2011414 -11.791431c-0.79714966 -2.8180752 -1.8859558 -4.2271156 -3.2664642 -4.2271156z" fill-rule="evenodd"/><path stroke="#000000" stroke-width="1.0" stroke-linejoin="round" stroke-linecap="butt" d="m200.41946 7.034742c-0.5543823 0 -1.0054779 0.7213731 -1.3533325 2.164122c-0.34783936 1.4292631 -0.52175903 3.2765207 -0.52175903 5.54177c0 1.8202887 0.14131165 3.2293272 0.42393494 4.2271166c0.2826233 0.9843044 0.6413269 1.4764576 1.0761414 1.4764576c0.47828674 0 0.8985901 -0.76856804 1.2609253 -2.3057003c0.3659668 -1.5371342 0.54893494 -3.4180994 0.54893494 -5.6428976c0 -3.6405792 -0.47827148 -5.4608684 -1.434845 -5.4608684zm6.734024 2.4877286c-1.3805084 30.419062 -2.3370667 51.8378 -2.8697052 64.25622l1.7772522 0l4.4676056 -64.25622zm-9.375458 22.207533l-3.8153992 66.50124l2.7392578 0l3.8153992 -66.50124zm6.79924 51.817574c-0.73916626 0 -1.3243408 0.88991547 -1.7555237 2.669754c-0.42755127 1.7798386 -0.6413269 4.206894 -0.6413269 7.2811584c0 2.062996 0.14855957 3.6608047 0.4456787 4.793434c0.30073547 1.1326218 0.7174225 1.6989365 1.2500458 1.6989365c0.71743774 0 1.2881165 -0.9505997 1.7120514 -2.8517914c0.42393494 -1.9011917 0.6358948 -4.227112 0.6358948 -6.9777756c0 -2.184349 -0.1521759 -3.8293533 -0.45654297 -4.935005c-0.30436707 -1.1191406 -0.7011261 -1.6787109 -1.1902771 -1.6787109z" fill-rule="evenodd"/></g></svg>